<svg width="428" height="256" viewBox="0 0 428 256" fill="none" xmlns="http://www.w3.org/2000/svg">
<path fill-rule="evenodd" clip-rule="evenodd" d="M0 77L18 70C36 64 71 51 107 45C143 38 178 38 214 43C250 47 285 55 321 49C357 43 392 21 410 11L428 0V128H410C392 128 357 128 321 128C285 128 250 128 214 128C178 128 143 128 107 128C71 128 36 128 18 128H0V77Z" fill="black"/>
<path fill-rule="evenodd" clip-rule="evenodd" d="M428 179L410 186C392 192 357 205 321 211C285 218 250 218 214 213C178 209 143 201 107 207C71 213 36 235 18 245L0 256V128H18C36 128 71 128 107 128C143 128 178 128 214 128C250 128 285 128 321 128C357 128 392 128 410 128H428V179Z" fill="black"/>
</svg>
