<svg width="428" height="246" viewBox="0 0 428 246" fill="none" xmlns="http://www.w3.org/2000/svg">
<path fill-rule="evenodd" clip-rule="evenodd" d="M0 77L18 70C36 64 71 51 107 45C143 38 178 38 214 43C250 47 285 55 321 49C357 43 392 21 410 11L428 0V128H410C392 128 357 128 321 128C285 128 250 128 214 128C178 128 143 128 107 128C71 128 36 128 18 128H0V77Z" fill="black"/>
<path fill-rule="evenodd" clip-rule="evenodd" d="M428 169L410 176C392 182 357 195 321 201C285 208 250 208 214 203C178 199 143 191 107 197C71 203 36 225 18 235L0 246V118H18C36 118 71 118 107 118C143 118 178 118 214 118C250 118 285 118 321 118C357 118 392 118 410 118H428V169Z" fill="black"/>
</svg>
