<svg width="834" height="256" viewBox="0 0 834 256" fill="none" xmlns="http://www.w3.org/2000/svg">
<path fill-rule="evenodd" clip-rule="evenodd" d="M0 77L35.0748 70C70.1495 64 138.35 51 208.5 45C278.65 38 346.85 38 417 43C487.15 47 555.35 55 625.5 49C695.65 43 763.85 21 798.925 11L834 0V128H798.925C763.85 128 695.65 128 625.5 128C555.35 128 487.15 128 417 128C346.85 128 278.65 128 208.5 128C138.35 128 70.1495 128 35.0748 128H0V77Z" fill="black"/>
<path fill-rule="evenodd" clip-rule="evenodd" d="M834 179L798.925 186C763.85 192 695.65 205 625.5 211C555.35 218 487.15 218 417 213C346.85 209 278.65 201 208.5 207C138.35 213 70.1495 235 35.0748 245L-6.67572e-06 256V128H35.0748C70.1495 128 138.35 128 208.5 128C278.65 128 346.85 128 417 128C487.15 128 555.35 128 625.5 128C695.65 128 763.85 128 798.925 128H834V179Z" fill="black"/>
</svg>
