<svg width="834" height="246" viewBox="0 0 834 246" fill="none" xmlns="http://www.w3.org/2000/svg">
<path fill-rule="evenodd" clip-rule="evenodd" d="M0 77L35.0748 70C70.1495 64 138.35 51 208.5 45C278.65 38 346.85 38 417 43C487.15 47 555.35 55 625.5 49C695.65 43 763.85 21 798.925 11L834 0V128H798.925C763.85 128 695.65 128 625.5 128C555.35 128 487.15 128 417 128C346.85 128 278.65 128 208.5 128C138.35 128 70.1495 128 35.0748 128H0V77Z" fill="black"/>
<path fill-rule="evenodd" clip-rule="evenodd" d="M834 169L798.925 176C763.85 182 695.65 195 625.5 201C555.35 208 487.15 208 417 203C346.85 199 278.65 191 208.5 197C138.35 203 70.1495 225 35.0748 235L-6.67572e-06 246V118H35.0748C70.1495 118 138.35 118 208.5 118C278.65 118 346.85 118 417 118C487.15 118 555.35 118 625.5 118C695.65 118 763.85 118 798.925 118H834V169Z" fill="black"/>
</svg>
