<svg width="1168" height="256" viewBox="0 0 1168 256" fill="none" xmlns="http://www.w3.org/2000/svg">
<path fill-rule="evenodd" clip-rule="evenodd" d="M0 77L49.1215 70C98.243 64 193.757 51 292 45C390.243 38 485.757 38 584 43C682.243 47 777.757 55 876 49C974.243 43 1069.76 21 1118.88 11L1168 0V128H1118.88C1069.76 128 974.243 128 876 128C777.757 128 682.243 128 584 128C485.757 128 390.243 128 292 128C193.757 128 98.243 128 49.1215 128H0V77Z" fill="black"/>
<path fill-rule="evenodd" clip-rule="evenodd" d="M1168 179L1118.88 186C1069.76 192 974.243 205 876 211C777.757 218 682.243 218 584 213C485.757 209 390.243 201 292 207C193.757 213 98.243 235 49.1215 245L1.90735e-06 256V128H49.1215C98.243 128 193.757 128 292 128C390.243 128 485.757 128 584 128C682.243 128 777.757 128 876 128C974.243 128 1069.76 128 1118.88 128H1168V179Z" fill="black"/>
</svg>
