<svg xmlns="http://www.w3.org/2000/svg" width="33" height="40" fill="none" xmlns:v="https://vecta.io/nano"><path d="M12.384 32.544c-.853 0-1.6-.181-2.24-.544-.619-.341-.928-.949-.928-1.824 0-.555.139-1.173.416-1.856.384.427.736.725 1.056.896a2.4 2.4 0 0 0 1.088.256c1.067 0 1.856-.597 2.368-1.792.533-1.195.8-2.517.8-3.968 0-2.709-1.013-4.064-3.04-4.064a9.62 9.62 0 0 0-1.472.096L7.808 32H3.2l4.352-20.352 4.736-.64-1.504 7.104h.192c.811 0 1.568-.256 2.272-.768a6.09 6.09 0 0 0 1.696-1.984c.427-.811.64-1.621.64-2.432a3.24 3.24 0 0 0-1.056-2.464c-.683-.661-1.739-.992-3.168-.992-1.301 0-2.571.299-3.808.896-1.237.576-2.251 1.451-3.04 2.624-.768 1.173-1.152 2.592-1.152 4.256 0 .789.075 1.344.224 1.664.149.299.224.469.224.512-1.131 0-1.984-.224-2.56-.672-.576-.469-.864-1.227-.864-2.272 0-1.451.544-2.827 1.632-4.128s2.528-2.347 4.32-3.136C8.128 8.405 10.016 8 12 8c1.493 0 2.752.235 3.776.704s1.781 1.088 2.272 1.856c.512.768.768 1.611.768 2.528 0 .981-.277 1.931-.832 2.848s-1.344 1.664-2.368 2.24c1.28.235 2.229.832 2.848 1.792.619.939.928 2.059.928 3.36 0 1.216-.235 2.539-.704 3.968-.448 1.429-1.205 2.667-2.272 3.712-1.045 1.024-2.389 1.536-4.032 1.536z" fill="#fff"/><g fill="#e9e7db"><path d="M33 10.25H22v19.5h11v-19.5z"/><path d="M32.21 11.067h-9.418v18.682h9.418V11.067z"/></g><path d="M31.855 11.457h-8.711V29.75h8.711V11.457z" fill="#941d45"/><path d="M23.571 11.884h8.285v-.426h-8.711V29.75h.427V11.884z" fill="#5d1942"/><path d="M30.675 12.738h-6.354v7.43h6.354v-7.43z" fill="#f6aeba"/><path d="M30.447 12.995h-5.893v6.917h5.893v-6.917z" fill="#202751"/><path d="M24.832 13.272h5.614v-.278h-5.891v6.917h.278v-6.639z" fill="#16193a"/><path d="M28.403 13.272l.154-.278h-1.299l-.152.278h1.297zm1.121 0l.154-.278h-.564l-.153.278h.564zm-4.693 4.143l-.278.506v1.99h.206l.072-.132v-2.364zm5.52-4.42l-.152.278h.247v-.278h-.095z" fill="#1b2044"/><path d="M31.183 21.814c.219 0 .397-.178.397-.397s-.178-.397-.397-.397-.397.178-.397.397.178.397.397.397z" fill="#7c153d"/><path d="M31.184 21.665c.219 0 .397-.178.397-.397s-.178-.397-.397-.397-.397.178-.397.397.178.397.397.397z" fill="#ffd0dc"/><path d="M31.167 21.237c.069-.096.074-.21.011-.256s-.17-.004-.239.092-.074.21-.011.256.17.004.239-.092z" fill="#f6dae9"/></svg>