<svg xmlns="http://www.w3.org/2000/svg" width="73" height="40" fill="none" xmlns:v="https://vecta.io/nano"><path d="M26.648 21.44c1.653 0 2.917.459 3.792 1.376.885.917 1.328 2.219 1.328 3.904s-.443 2.987-1.328 3.904c-.875.917-2.139 1.376-3.792 1.376h-4.48V21.44h4.48zm-.272 8.48c.896 0 1.547-.267 1.952-.8.416-.544.624-1.344.624-2.4s-.208-1.851-.624-2.384c-.405-.544-1.056-.816-1.952-.816H24.92v6.4h1.456zm12.652-8.64c1.067 0 1.984.219 2.752.656.779.427 1.376 1.045 1.792 1.856s.624 1.787.624 2.928-.208 2.117-.624 2.928a4.4 4.4 0 0 1-1.792 1.872c-.768.427-1.685.64-2.752.64-1.077 0-2.005-.213-2.784-.64-.768-.437-1.36-1.061-1.776-1.872s-.624-1.787-.624-2.928.208-2.117.624-2.928 1.008-1.429 1.776-1.856c.779-.437 1.707-.656 2.784-.656zm0 2.16c-.768 0-1.355.277-1.76.832-.405.544-.608 1.36-.608 2.448s.203 1.909.608 2.464c.405.544.992.816 1.76.816.757 0 1.339-.272 1.744-.816.405-.555.608-1.376.608-2.464s-.203-1.904-.608-2.448c-.405-.555-.987-.832-1.744-.832zm12.437-2.16c1.067 0 1.984.219 2.752.656.779.427 1.376 1.045 1.792 1.856s.624 1.787.624 2.928-.208 2.117-.624 2.928a4.4 4.4 0 0 1-1.792 1.872c-.768.427-1.685.64-2.752.64-1.077 0-2.005-.213-2.784-.64-.768-.437-1.36-1.061-1.776-1.872s-.624-1.787-.624-2.928.208-2.117.624-2.928 1.008-1.429 1.776-1.856c.779-.437 1.707-.656 2.784-.656zm0 2.16c-.768 0-1.355.277-1.76.832-.405.544-.608 1.36-.608 2.448s.203 1.909.608 2.464c.405.544.992.816 1.76.816.757 0 1.339-.272 1.744-.816.405-.555.608-1.376.608-2.464s-.203-1.904-.608-2.448c-.405-.555-.987-.832-1.744-.832zm12.741-2c1.259 0 2.235.293 2.928.88.704.587 1.056 1.376 1.056 2.368 0 .789-.187 1.44-.56 1.952-.363.501-.885.869-1.568 1.104L68.814 32h-3.04l-2.256-3.856H61.87V32h-2.704V21.44h5.04zm-.384 4.752c.533 0 .933-.107 1.2-.32s.4-.555.4-1.024c0-.885-.533-1.328-1.6-1.328H61.87v2.672h1.952z" fill="#e75950"/><path d="M12.384 32.544c-.853 0-1.6-.181-2.24-.544-.619-.341-.928-.949-.928-1.824 0-.555.139-1.173.416-1.856.384.427.736.725 1.056.896a2.4 2.4 0 0 0 1.088.256c1.067 0 1.856-.597 2.368-1.792.533-1.195.8-2.517.8-3.968 0-2.709-1.013-4.064-3.04-4.064a9.62 9.62 0 0 0-1.472.096L7.808 32H3.2l4.352-20.352 4.736-.64-1.504 7.104h.192c.811 0 1.568-.256 2.272-.768a6.09 6.09 0 0 0 1.696-1.984c.427-.811.64-1.621.64-2.432a3.24 3.24 0 0 0-1.056-2.464c-.683-.661-1.739-.992-3.168-.992-1.301 0-2.571.299-3.808.896-1.237.576-2.251 1.451-3.04 2.624-.768 1.173-1.152 2.592-1.152 4.256 0 .789.075 1.344.224 1.664l.224.512c-1.131 0-1.984-.224-2.56-.672-.576-.469-.864-1.227-.864-2.272 0-1.451.544-2.827 1.632-4.128s2.528-2.347 4.32-3.136A13.58 13.58 0 0 1 12 8c1.493 0 2.752.235 3.776.704s1.781 1.088 2.272 1.856c.512.768.768 1.611.768 2.528 0 .981-.277 1.931-.832 2.848s-1.344 1.664-2.368 2.24c1.28.235 2.229.832 2.848 1.792.619.939.928 2.059.928 3.36 0 1.216-.235 2.539-.704 3.968-.448 1.429-1.205 2.667-2.272 3.712-1.045 1.024-2.389 1.536-4.032 1.536zm11.151-13.451c-.496 0-.899-.155-1.209-.465-.3-.31-.45-.775-.45-1.395A5.36 5.36 0 0 1 22 16.225l1.054-4.975h2.232l-1.116 5.27a2.22 2.22 0 0 0-.047.434c0 .424.155.636.465.636.289 0 .537-.119.744-.357.207-.248.372-.584.496-1.008l1.054-4.975h2.232l-1.116 5.27a1.92 1.92 0 0 0-.062.496c0 .207.047.357.14.45.103.083.269.124.496.124.289 0 .537-.124.744-.372.217-.248.387-.579.512-.992h.651c-.382 1.116-.858 1.875-1.426 2.279-.558.393-1.121.589-1.689.589-.444 0-.801-.124-1.069-.372-.258-.248-.413-.615-.465-1.101-.351.568-.723.956-1.116 1.163-.382.207-.775.31-1.178.31zm8.678 0c-.496 0-.914-.093-1.255-.279-.341-.196-.594-.444-.759-.744a2.02 2.02 0 0 1-.248-.961 1.56 1.56 0 0 1 .248-.884c.155-.258.346-.444.573-.558a20.13 20.13 0 0 0 1.054-2.186l.853-2.402 2.294-.31.264 4.294.078 1.348a2.35 2.35 0 0 1-.062.589c.486-.279.858-.537 1.116-.775h.651c-.661.765-1.452 1.41-2.371 1.938a2.74 2.74 0 0 1-1.116.713 4.14 4.14 0 0 1-1.318.217zm-.496-1.224c.382 0 .703-.114.961-.341s.387-.594.387-1.101c0-.31-.031-.744-.093-1.302l-.202-2.371c-.248.816-.666 1.793-1.255 2.929.238.124.357.305.357.543 0 .196-.067.372-.201.527-.124.155-.284.232-.481.232-.217 0-.356-.067-.418-.201 0 .372.072.646.217.822.155.176.398.264.729.264zm7.856-7.456a1.18 1.18 0 0 1-.868-.357 1.18 1.18 0 0 1-.356-.868 1.18 1.18 0 0 1 .356-.868c.238-.248.527-.372.868-.372s.63.124.868.372c.248.238.372.527.372.868s-.124.63-.372.868a1.18 1.18 0 0 1-.868.357zm-1.054 8.68c-.496 0-.899-.155-1.209-.465-.3-.31-.45-.775-.45-1.395a5.38 5.38 0 0 1 .124-1.008l1.054-4.975h2.232l-1.116 5.27a1.92 1.92 0 0 0-.062.496c0 .207.046.357.139.45.103.083.269.124.496.124.3 0 .579-.124.837-.372a2.23 2.23 0 0 0 .558-.992h.651c-.382 1.116-.873 1.875-1.473 2.279-.599.393-1.194.589-1.782.589zm8.813 0c-.63 0-1.095-.165-1.395-.496-.289-.341-.434-.76-.434-1.256a3.89 3.89 0 0 1 .078-.729l.155-.806.124-.496.233-1.069c.072-.351.108-.636.108-.853 0-.527-.186-.79-.558-.79-.269 0-.506.134-.713.403-.207.258-.372.599-.496 1.023L43.38 19h-2.232l1.643-7.75h2.232l-.171.806c.517-.579 1.121-.868 1.814-.868.527 0 .945.145 1.255.434s.465.729.465 1.318a5.33 5.33 0 0 1-.108 1.007l-.31 1.333-.233.946a3.73 3.73 0 0 0-.093.713c0 .207.046.367.139.48s.253.171.48.171a.93.93 0 0 0 .744-.326c.186-.227.372-.573.558-1.038h.651c-.382 1.137-.827 1.901-1.333 2.294-.496.382-1.013.573-1.55.573zm5.067 0c-.765 0-1.359-.196-1.782-.589-.424-.403-.636-1.028-.636-1.876 0-.713.139-1.498.418-2.356a5.41 5.41 0 0 1 1.364-2.217c.63-.63 1.431-.945 2.402-.945 1.137 0 1.705.496 1.705 1.488 0 .579-.165 1.111-.496 1.597s-.77.878-1.318 1.178c-.548.289-1.131.455-1.751.496l-.031.62c0 .506.088.852.264 1.038.176.176.46.264.852.264.558 0 1.033-.129 1.426-.387.403-.258.842-.651 1.317-1.178h.527c-1.147 1.912-2.568 2.867-4.262 2.867zm.031-3.968c.382-.021.744-.155 1.085-.403a2.73 2.73 0 0 0 .837-.945 2.41 2.41 0 0 0 .326-1.209c0-.424-.129-.636-.388-.636-.372 0-.739.325-1.1.976-.351.651-.605 1.39-.76 2.217zm6.088 3.968c-.496 0-.914-.093-1.255-.279-.341-.196-.594-.444-.76-.744a2.02 2.02 0 0 1-.248-.961 1.56 1.56 0 0 1 .248-.884c.155-.258.346-.444.574-.558a20.13 20.13 0 0 0 1.054-2.186l.852-2.402 2.294-.31.264 4.294.078 1.348a2.35 2.35 0 0 1-.062.589c.486-.279.858-.537 1.116-.775h.651a9.06 9.06 0 0 1-2.371 1.938 2.74 2.74 0 0 1-1.116.713 4.14 4.14 0 0 1-1.318.217zm-.496-1.224c.382 0 .703-.114.961-.341s.387-.594.387-1.101c0-.31-.031-.744-.093-1.302l-.202-2.371c-.248.816-.666 1.793-1.255 2.929.238.124.357.305.357.543a.78.78 0 0 1-.202.527c-.124.155-.284.232-.48.232-.217 0-.357-.067-.419-.201 0 .372.072.646.217.822.155.176.398.264.729.264zm7.034 1.224c-.496 0-.914-.093-1.255-.279-.341-.196-.594-.444-.76-.744a2.02 2.02 0 0 1-.248-.961 1.56 1.56 0 0 1 .248-.884c.155-.258.346-.444.574-.558a20.11 20.11 0 0 0 1.054-2.186l.852-2.402 2.294-.31.264 4.294.078 1.348c0 .63-.16 1.147-.481 1.55a2.69 2.69 0 0 1-1.194.868c-.465.176-.94.264-1.426.264zm-.496-1.224c.382 0 .703-.114.961-.341s.388-.594.388-1.101c0-.31-.031-.744-.093-1.302l-.201-2.371c-.248.816-.666 1.793-1.255 2.929.238.124.356.305.356.543 0 .196-.067.372-.201.527-.124.155-.284.232-.481.232-.217 0-.356-.067-.418-.201 0 .372.072.646.217.822.155.176.398.264.728.264z" fill="#fff"/></svg>