<svg width="60" height="60" viewBox="0 0 60 60" fill="none" xmlns="http://www.w3.org/2000/svg">
<path d="M0 8C0 3.58172 3.58172 0 8 0H52C56.4183 0 60 3.58172 60 8V52C60 56.4183 56.4183 60 52 60H8C3.58172 60 0 56.4183 0 52V8Z" fill="#E75950"/>
<path d="M42 10H18V50.9253H42V10Z" fill="#FCF1F9"/>
<path d="M41.3429 10.7141H18.6602V50.9251H41.3429V10.7141Z" fill="#FFD0DC"/>
<path d="M39.7126 12.3987H20.291V50.9219H39.7126V12.3987Z" fill="#F6AEBA"/>
<path d="M38.9815 13.2039H21.0186V50.9253H38.9815V13.2039Z" fill="#941D45"/>
<path d="M21.8978 14.0831H38.9815V13.2039H21.0186V50.9253H21.8978V14.0831Z" fill="#5D1942"/>
<path d="M36.5494 15.845H23.4478V31.1667H36.5494V15.845Z" fill="#F6AEBA"/>
<path d="M36.0773 16.374H23.9258V30.6379H36.0773V16.374Z" fill="#202751"/>
<path d="M24.4985 16.9467H36.074V16.374H23.9258V30.6379H24.4985V16.9467Z" fill="#16193A"/>
<path d="M31.8629 16.9467L32.1796 16.374H29.5013L29.188 16.9467H31.8629Z" fill="#1B2044"/>
<path d="M34.1735 16.9467L34.4902 16.374H33.3279L33.0112 16.9467H34.1735Z" fill="#1B2044"/>
<path d="M24.4985 25.4902L23.9258 26.5346V30.6379H24.3503L24.4985 30.365V25.4902Z" fill="#1B2044"/>
<path d="M35.8783 16.374L35.5649 16.9467H36.0737V16.374H35.8783Z" fill="#1B2044"/>
<path d="M33.1367 33.0769H26.8672V34.4851H33.1367V33.0769Z" fill="#7C153D"/>
<path d="M33.1367 32.8813H26.8672V34.2895H33.1367V32.8813Z" fill="#F6AEBA"/>
<path d="M32.9046 33.0769H27.0933V34.0977H32.9046V33.0769Z" fill="#5D1942"/>
<path d="M27.4369 33.3801H32.9079V33.0769H27.0933V34.0977H27.4369V33.3801Z" fill="#4C1538"/>
<path d="M26.1284 38.0262V35.9207H25.9263V38.0262H26.1284Z" fill="#A82658"/>
<path d="M26.131 35.9209H23.9277V36.123H26.131V35.9209Z" fill="#7C153D"/>
<path d="M26.129 37.8237H23.9258V38.0259H26.129V37.8237Z" fill="#A82658"/>
<path d="M24.1265 38.0274V35.9219H23.9243V38.0274H24.1265Z" fill="#7C153D"/>
<path d="M36.0752 38.0279V35.9224H35.8731V38.0279H36.0752Z" fill="#A82658"/>
<path d="M36.0739 35.9209H33.8706V36.123H36.0739V35.9209Z" fill="#7C153D"/>
<path d="M36.0739 37.824H33.8706V38.0261H36.0739V37.824Z" fill="#A82658"/>
<path d="M34.0728 38.0257V35.9202H33.8706V38.0257H34.0728Z" fill="#7C153D"/>
<path d="M26.1299 47.7537V45.6482H25.9278V47.7537H26.1299Z" fill="#A82658"/>
<path d="M26.129 45.6519H23.9258V45.854H26.129V45.6519Z" fill="#7C153D"/>
<path d="M26.129 47.553H23.9258V47.7551H26.129V47.553Z" fill="#A82658"/>
<path d="M24.1279 47.7547V45.6492H23.9258V47.7547H24.1279Z" fill="#7C153D"/>
<path d="M36.0771 47.755V45.6494H35.875V47.755H36.0771Z" fill="#A82658"/>
<path d="M36.0739 45.6514H33.8706V45.8535H36.0739V45.6514Z" fill="#7C153D"/>
<path d="M36.0739 47.5527H33.8706V47.7549H36.0739V47.5527Z" fill="#A82658"/>
<path d="M34.0747 47.753V45.6475H33.8726V47.753H34.0747Z" fill="#7C153D"/>
<path d="M33.8706 46.4583H26.1289V46.9467H33.8706V46.4583Z" fill="#A82658"/>
<path d="M25.27 45.6485V38.0247H24.7815V45.6485H25.27Z" fill="#7C153D"/>
<path d="M35.2153 45.6487V38.0081H34.7269V45.6487H35.2153Z" fill="#A82658"/>
<path d="M33.8706 36.9749H26.1289V37.4633H33.8706V36.9749Z" fill="#7C153D"/>
<path d="M37.5965 34.5592C38.0486 34.5592 38.4151 34.1926 38.4151 33.7405C38.4151 33.2884 38.0486 32.9219 37.5965 32.9219C37.1444 32.9219 36.7778 33.2884 36.7778 33.7405C36.7778 34.1926 37.1444 34.5592 37.5965 34.5592Z" fill="#7C153D"/>
<path d="M37.5965 34.2525C38.0486 34.2525 38.4151 33.886 38.4151 33.4339C38.4151 32.9818 38.0486 32.6152 37.5965 32.6152C37.1444 32.6152 36.7778 32.9818 36.7778 33.4339C36.7778 33.886 37.1444 34.2525 37.5965 34.2525Z" fill="#FFD0DC"/>
<path d="M37.5626 33.3696C37.7049 33.1717 37.7149 32.9356 37.585 32.8422C37.4551 32.7487 37.2344 32.8334 37.0921 33.0313C36.9498 33.2292 36.9398 33.4654 37.0697 33.5588C37.1996 33.6522 37.4203 33.5675 37.5626 33.3696Z" fill="#F6DAE9"/>
<path d="M60 28L42 10V51H18L27 60H60V28Z" fill="black" fill-opacity="0.2"/>
</svg>
