<svg xmlns="http://www.w3.org/2000/svg" width="60" height="60" fill="none" xmlns:v="https://vecta.io/nano"><style><![CDATA[.B{fill:#7c153d}.C{fill:#a82658}.D{fill:#f6aeba}]]></style><path d="M0 8a8 8 0 0 1 8-8h44a8 8 0 0 1 8 8v44a8 8 0 0 1-8 8H8a8 8 0 0 1-8-8V8z" fill="#e75950"/><path d="M42 10H18v40.925h24V10z" fill="#fcf1f9"/><path d="M41.343 10.714H18.66v40.211h22.683V10.714z" fill="#ffd0dc"/><path d="M39.713 12.399H20.291v38.523h19.422V12.399z" class="D"/><path d="M38.982 13.204H21.019v37.721h17.963V13.204z" fill="#941d45"/><path d="M21.898 14.083h17.084v-.879H21.019v37.721h.879V14.083z" fill="#5d1942"/><path d="M36.549 15.845H23.448v15.322h13.102V15.845z" class="D"/><path d="M36.077 16.374H23.926v14.264h12.152V16.374z" fill="#202751"/><path d="M24.499 16.947h11.575v-.573H23.926v14.264h.573V16.947z" fill="#16193a"/><path d="M31.863 16.947l.317-.573h-2.678l-.313.573h2.675zm2.311 0l.317-.573h-1.162l-.317.573h1.162zm-9.675 8.543l-.573 1.044v4.103h.425l.148-.273V25.49zm11.379-9.116l-.313.573h.509v-.573h-.195z" fill="#1b2044"/><path d="M33.137 33.077h-6.269v1.408h6.269v-1.408z" class="B"/><path d="M33.137 32.881h-6.269v1.408h6.269v-1.408z" class="D"/><path d="M32.905 33.077h-5.811v1.021h5.811v-1.021z" fill="#5d1942"/><path d="M27.437 33.38h5.471v-.303h-5.815v1.021h.344v-.718z" fill="#4c1538"/><path d="M26.128 38.026v-2.106h-.202v2.106h.202z" class="C"/><path d="M26.131 35.921h-2.203v.202h2.203v-.202z" class="B"/><path d="M26.129 37.824h-2.203v.202h2.203v-.202z" class="C"/><path d="M24.127 38.027v-2.105h-.202v2.105h.202z" class="B"/><path d="M36.075 38.028v-2.105h-.202v2.105h.202z" class="C"/><path d="M36.074 35.921h-2.203v.202h2.203v-.202z" class="B"/><path d="M36.074 37.824h-2.203v.202h2.203v-.202z" class="C"/><path d="M34.073 38.026V35.92h-.202v2.105h.202z" class="B"/><path d="M26.13 47.754v-2.105h-.202v2.105h.202z" class="C"/><path d="M26.129 45.652h-2.203v.202h2.203v-.202z" class="B"/><path d="M26.129 47.553h-2.203v.202h2.203v-.202z" class="C"/><path d="M24.128 47.755v-2.105h-.202v2.105h.202z" class="B"/><path d="M36.077 47.755v-2.106h-.202v2.106h.202z" class="C"/><path d="M36.074 45.651h-2.203v.202h2.203v-.202z" class="B"/><path d="M36.074 47.553h-2.203v.202h2.203v-.202z" class="C"/><path d="M34.075 47.753v-2.105h-.202v2.105h.202z" class="B"/><path d="M33.871 46.458h-7.742v.488h7.742v-.488z" class="C"/><path d="M25.27 45.649v-7.624h-.488v7.624h.488z" class="B"/><path d="M35.215 45.649v-7.641h-.488v7.641h.488z" class="C"/><path d="M33.871 36.975h-7.742v.488h7.742v-.488zm3.726-2.416a.82.82 0 0 0 .819-.819.82.82 0 0 0-.819-.819.82.82 0 0 0-.819.819.82.82 0 0 0 .819.819z" class="B"/><path d="M37.597 34.253a.82.82 0 0 0 .819-.819.82.82 0 0 0-.819-.819.82.82 0 0 0-.819.819.82.82 0 0 0 .819.819z" fill="#ffd0dc"/><path d="M37.563 33.37c.142-.198.152-.434.022-.527s-.351-.009-.493.189-.152.434-.022.527.351.009.493-.189z" fill="#f6dae9"/><path d="M60 28L42 10v41H18l9 9h33V28z" fill="#000" fill-opacity=".2"/></svg>