<svg width="202" height="59" viewBox="0 0 202 59" fill="none" xmlns="http://www.w3.org/2000/svg">
<path d="M17.4936 14.5972H1V31.0908H17.4936V14.5972Z" stroke="black" stroke-width="2" stroke-miterlimit="10"/>
<path d="M48.0058 14.5972H31.5122V31.0908H48.0058V14.5972Z" stroke="black" stroke-width="2" stroke-miterlimit="10"/>
<path d="M78.5048 14.5972H62.0112V31.0908H78.5048V14.5972Z" stroke="black" stroke-width="2" stroke-miterlimit="10"/>
<path d="M109.017 14.5972H92.5234V31.0908H109.017V14.5972Z" stroke="black" stroke-width="2" stroke-miterlimit="10"/>
<path d="M139.516 14.5972H123.022V31.0908H139.516V14.5972Z" stroke="black" stroke-width="2" stroke-miterlimit="10"/>
<path d="M170.015 14.5972H153.521V31.0908H170.015V14.5972Z" stroke="black" stroke-width="2" stroke-miterlimit="10"/>
<path d="M200.527 14.5972H184.033V31.0908H200.527V14.5972Z" stroke="black" stroke-width="2" stroke-miterlimit="10"/>
<path d="M17.4936 41.5063H1V57.9999H17.4936V41.5063Z" stroke="black" stroke-width="2" stroke-miterlimit="10"/>
<path d="M48.0058 41.5063H31.5122V57.9999H48.0058V41.5063Z" stroke="black" stroke-width="2" stroke-miterlimit="10"/>
<path d="M78.5048 41.5063H62.0112V57.9999H78.5048V41.5063Z" stroke="black" stroke-width="2" stroke-miterlimit="10"/>
<path d="M109.017 41.5063H92.5234V57.9999H109.017V41.5063Z" stroke="black" stroke-width="2" stroke-miterlimit="10"/>
<path d="M139.516 41.5063H123.022V57.9999H139.516V41.5063Z" stroke="black" stroke-width="2" stroke-miterlimit="10"/>
<path d="M170.015 41.5063H153.521V57.9999H170.015V41.5063Z" stroke="black" stroke-width="2" stroke-miterlimit="10"/>
<path d="M200.527 41.5063H184.033V57.9999H200.527V41.5063Z" stroke="black" stroke-width="2" stroke-miterlimit="10"/>
<path d="M1 1H17.4936" stroke="black" stroke-width="2" stroke-miterlimit="10" stroke-linecap="square"/>
<path d="M31.5122 1H47.9922" stroke="black" stroke-width="2" stroke-miterlimit="10" stroke-linecap="square"/>
</svg>
